HIERARCHY
ROOT hip
{
	OFFSET 0.000000 0.000000 0.000000 
	CHANNELS 6 Xposition Yposition Zposition Zrotation Xrotation Yrotation
	JOINT abdomen
	{
		OFFSET 0.000000 3.402643 0.000000 
		CHANNELS 3 Zrotation Xrotation Yrotation
		JOINT chest
		{
			OFFSET 0.000000 8.438565 -0.680529 
			CHANNELS 3 Zrotation Xrotation Yrotation
			JOINT neck
			{
				OFFSET 0.000000 10.207942 -0.272212 
				CHANNELS 3 Zrotation Xrotation Yrotation
				JOINT head
				{
					OFFSET 0.000000 3.130431 0.000000 
					CHANNELS 3 Zrotation Xrotation Yrotation
					End Site
					{
						OFFSET 0.000000 3.130435 0.000000 
					}
				}
			}
			JOINT lCollar
			{
				OFFSET 3.470700 6.669187 -0.816635 
				CHANNELS 3 Zrotation Xrotation Yrotation
				JOINT lShldr
				{
					OFFSET 3.198488 0.000000 0.000000 
					CHANNELS 3 Zrotation Xrotation Yrotation
					JOINT lForeArm
					{
						OFFSET 10.139888 0.000000 0.000000 
						CHANNELS 3 Zrotation Xrotation Yrotation
						JOINT lHand
						{
							OFFSET 8.370511 0.000000 0.000000 
							CHANNELS 3 Zrotation Xrotation Yrotation
							End Site
							{
								OFFSET 4.083176 0.000000 0.000000 
							}
						}
					}
				}
			}
			JOINT rCollar
			{
				OFFSET -3.470700 6.669187 -0.816635 
				CHANNELS 3 Zrotation Xrotation Yrotation
				JOINT rShldr
				{
					OFFSET -3.198488 0.000000 0.000000 
					CHANNELS 3 Zrotation Xrotation Yrotation
					JOINT rForeArm
					{
						OFFSET -10.139888 0.000000 0.000000 
						CHANNELS 3 Zrotation Xrotation Yrotation
						JOINT rHand
						{
							OFFSET -8.370511 0.000000 0.000000 
							CHANNELS 3 Zrotation Xrotation Yrotation
							End Site
							{
								OFFSET -4.083176 0.000000 0.000000 
							}
						}
					}
				}
			}
		}
	}
	JOINT lThigh
	{
		OFFSET 5.308129 -1.633274 1.361059 
		CHANNELS 3 Zrotation Xrotation Yrotation
		JOINT lShin
		{
			OFFSET -2.041588 -20.007561 0.000000 
			CHANNELS 3 Zrotation Xrotation Yrotation
			JOINT lFoot
			{
				OFFSET 0.000000 -19.190928 -1.224953 
				CHANNELS 3 Zrotation Xrotation Yrotation
				End Site
				{
					OFFSET 0.000000 -2.449906 4.627600 
				}
			}
		}
	}
	JOINT rThigh
	{
		OFFSET -5.308129 -1.633274 1.361059 
		CHANNELS 3 Zrotation Xrotation Yrotation
		JOINT rShin
		{
			OFFSET 2.041588 -20.007561 0.000000 
			CHANNELS 3 Zrotation Xrotation Yrotation
			JOINT rFoot
			{
				OFFSET 0.000000 -19.190928 -1.224953 
				CHANNELS 3 Zrotation Xrotation Yrotation
				End Site
				{
					OFFSET 0.000000 -2.449906 4.627600 
				}
			}
		}
	}
}
MOTION
Frames: 19
Frame Time: 0.033333
-0.910381 47.521439 -2.989264 1.064810 1.484119 33.830009 -0.000000 -0.000002 -0.000000 -1.877275 2.820756 -39.497421 -1.308627 14.039444 4.536261 -0.954937 -15.993991 -0.145955 -2.000757 -0.069240 1.990978 -75.910751 36.118027 4.982896 5.076014 7.984634 -61.013142 33.463142 -3.845676 -7.438702 1.990970 -0.069577 -2.000746 30.276924 48.861847 58.384491 -14.506606 2.119678 83.910553 -82.062996 -45.097851 -73.149544 7.568685 -15.730018 -12.934447 -8.126814 39.784973 3.688538 -6.599567 -25.426058 4.675820 -22.144215 -10.621306 -31.790323 12.049109 32.500648 -1.285834 -2.422669 -19.585312 2.534395 
-0.599818 47.498844 -3.394727 1.182801 2.538522 30.543314 -0.000000 -0.000002 -0.000000 -2.452637 1.980608 -40.296040 -1.595421 14.730856 4.976093 -0.954937 -15.993991 -0.145955 -2.000757 -0.069240 1.990978 -76.893150 37.040661 5.079705 5.344226 7.497317 -66.171921 31.964287 5.753924 -4.485526 1.990970 -0.069577 -2.000746 37.315056 47.599781 46.269508 -14.624036 0.624930 89.577713 -85.526978 -47.619789 -75.179390 7.207940 -15.544595 -9.374460 -8.066828 39.426346 3.683008 -5.912766 -25.593765 4.887338 -22.913946 -12.919203 -29.635937 11.849989 32.000145 -1.179858 -1.870384 -18.404556 3.144651 
-0.289265 47.481346 -3.800168 1.369851 3.573200 27.239061 -0.000000 -0.000002 -0.000000 -3.037732 1.160475 -41.129814 -1.894404 15.421646 5.415730 -0.954937 -15.993991 -0.145955 -2.000757 -0.069240 1.990978 -77.502136 38.508987 2.496281 5.515481 7.107739 -70.241623 27.796991 18.621670 0.721381 1.990970 -0.069577 -2.000746 46.716545 43.545086 32.352184 -14.616646 0.173957 91.306847 -94.200401 -55.823120 -82.874496 6.880184 -15.457653 -5.857005 -8.056313 39.127804 3.657950 -5.251195 -25.828516 5.097735 -23.526236 -15.233682 -27.506973 11.552073 31.395517 -0.999384 -1.297621 -17.213888 3.733138 
0.021301 47.468834 -4.205630 1.616553 4.607548 23.932882 -0.000000 -0.000002 -0.000000 -3.652403 0.341105 -41.961285 -2.195764 16.121576 5.873301 -0.954937 -15.993991 -0.145955 -2.000757 -0.069240 1.990978 -78.025238 39.951038 -0.140129 5.660289 6.700305 -74.314514 21.865475 30.998796 7.570682 1.990970 -0.069577 -2.000746 53.769234 38.132401 20.380669 -14.595002 -0.285431 93.033768 -107.414642 -62.996723 -95.165558 6.549790 -15.344860 -2.269557 -7.951474 38.717083 3.634171 -4.677701 -25.993629 5.227006 -23.977304 -17.556047 -25.345266 11.204309 30.610432 -0.835065 -0.748141 -15.869381 4.300216 
0.331856 47.461155 -4.611081 1.933097 5.612058 20.611668 -0.000000 -0.000002 -0.000000 -4.257954 -0.467455 -42.808224 -2.509402 16.791426 6.330833 -0.954937 -15.993991 -0.145955 -2.000757 -0.069240 1.990978 -78.459496 41.350864 -2.862520 5.781692 6.288267 -78.392868 12.985278 42.484344 17.256554 1.990970 -0.069577 -2.000746 58.632229 31.810495 10.150585 -14.579588 -0.735557 94.763329 -127.807289 -68.080856 -114.644188 6.248167 -15.395306 1.214835 -7.899328 38.277214 3.629869 -4.144644 -26.201788 5.332217 -24.205906 -19.856009 -23.129471 10.771809 29.676477 -0.635027 -0.149780 -14.429458 4.849374 
0.563042 47.410973 -4.374114 1.886629 6.363765 17.779408 -0.000000 -0.000002 -0.000000 -4.883987 -1.255192 -43.652149 -2.846228 17.469969 6.792180 -0.954937 -15.993991 -0.145955 -2.000757 -0.069240 1.990978 -78.795151 42.720669 -5.666881 5.868912 5.862776 -82.465324 -0.857787 52.257088 31.836567 1.990970 -0.069577 -2.000746 61.672714 24.917625 1.152186 -14.540969 -1.183918 96.493439 -154.795609 -69.489716 -140.733780 6.749643 -14.640935 4.672654 -7.870929 38.022850 3.630094 -4.229131 -26.982656 4.682018 -24.035942 -21.709515 -20.859673 10.860321 29.877319 -0.681116 0.183001 -14.405766 5.024936 
0.794228 47.363552 -4.137158 1.899398 7.115268 14.940425 -0.000000 -0.000002 -0.000000 -5.521124 -2.050992 -44.525303 -3.208680 18.264242 7.461109 -0.954937 -15.993991 -0.145955 -2.000757 -0.069240 1.990978 -79.034889 44.044338 -8.547378 5.927742 5.438380 -86.524765 -21.960224 58.642773 53.640457 1.990970 -0.069577 -2.000746 63.161251 17.726316 -6.983488 -14.487364 -1.639951 98.221848 -179.980240 -66.531082 -165.020874 7.212213 -14.005848 8.115360 -7.835238 37.918808 3.604210 -4.350245 -27.816845 4.059506 -23.540140 -23.339699 -18.461531 10.857820 29.752102 -0.653527 0.456880 -14.359015 5.182626 
1.025410 47.318630 -3.900193 1.942111 7.866628 12.097697 -0.000000 -0.000002 -0.000000 -6.179414 -2.825312 -45.393677 -3.587528 19.154583 8.317179 -0.954937 -15.993991 -0.145955 -2.000757 -0.069240 1.990978 -79.135735 45.341026 -11.557754 5.946738 5.006060 -90.579445 -48.327896 59.468189 80.691971 1.990970 -0.069577 -2.000746 63.322346 10.427135 -14.641591 -14.429500 -2.095532 99.950867 162.579803 -60.489159 178.453506 7.572795 -13.243538 11.510020 -7.774135 37.620281 3.591928 -4.530447 -28.610535 3.418058 -22.971991 -24.965042 -16.011337 10.808478 29.497900 -0.663576 0.774528 -14.145387 5.343290 
0.878052 47.245052 -3.173039 1.766586 8.306653 13.377514 -0.000000 -0.000002 -0.000000 -6.171385 -3.136047 -43.152470 -3.024254 19.447565 5.851490 -0.954937 -15.993991 -0.145955 -2.000757 -0.069240 1.990978 -75.242210 46.181850 -19.160084 5.951228 4.965971 -90.966896 -64.800331 54.646343 96.798386 1.990970 -0.069577 -2.000746 64.901413 10.251913 -16.342258 -14.542135 -1.169205 96.436707 151.364365 -51.281574 169.219574 6.717722 -13.444722 7.413874 -7.685199 37.375019 3.523563 -4.589044 -29.410547 6.042807 -22.776829 -25.159822 -13.573088 11.650478 31.166279 -1.110443 0.315713 -16.432785 1.852632 
0.352138 47.139858 -1.955697 1.352457 8.415657 18.806156 -0.000000 -0.000002 -0.000000 -5.495804 -2.984286 -37.699795 -1.539370 19.046349 0.014174 -0.954937 -15.993991 -0.145955 -2.000757 -0.069240 1.990978 -69.672157 49.403957 -29.487740 5.955448 4.926049 -91.354332 -76.840363 47.825310 108.447495 1.990970 -0.069577 -2.000746 66.375954 6.796096 -18.553036 -14.605290 -0.256398 92.920311 144.024521 -41.382927 163.989502 6.887084 -13.465356 3.245770 -7.566598 37.054367 3.422703 -5.856123 -29.595871 4.279897 -22.410652 -23.894560 -10.946743 13.106288 34.054596 -1.915306 -1.207255 -20.667385 -5.679214 
-0.284581 47.016350 -0.306193 0.789898 8.485533 24.336643 -0.000000 -0.000002 -0.000000 -4.820272 -2.812302 -32.191006 -0.103010 18.554653 -5.875441 -0.954937 -15.993991 -0.145955 -2.000757 -0.069240 1.990978 -62.653610 45.580654 -38.853897 5.934210 5.431316 -86.593071 -72.716034 46.776535 102.680443 1.990970 -0.069577 -2.000746 67.500084 6.736482 -10.296463 -14.569895 1.612573 85.828056 143.345200 -39.957611 161.935654 7.579413 -13.180565 -0.982812 -7.256631 36.404140 3.151088 -7.668472 -29.846140 2.297892 -20.867479 -22.199697 -8.042148 14.410825 36.468788 -2.666930 -3.671831 -24.821983 -13.885074 
-1.032081 46.875259 1.775404 0.078993 8.505851 29.998091 -0.000000 -0.000002 -0.000000 -4.174196 -2.590771 -26.653854 1.252201 17.925674 -11.762214 -0.954937 -15.993991 -0.145955 -2.000757 -0.069240 1.990978 -57.340412 34.606098 -44.542816 5.739738 6.465007 -76.675476 -52.634350 48.704235 79.753922 1.990970 -0.069577 -2.000746 66.250237 10.154101 8.523139 -14.063762 4.377822 75.129791 148.048355 -47.325703 161.897675 8.887532 -12.388237 -5.341832 -6.706207 34.936924 2.774246 -10.121734 -30.000566 0.138651 -20.946646 -22.242722 -9.367285 18.386414 42.820328 -5.252855 -2.875189 -22.636555 -17.022501 
-1.779572 46.732643 3.857008 -0.612124 8.456557 35.636841 -0.000000 -0.000002 -0.000000 -3.469692 -2.339459 -21.099430 2.524984 17.191299 -17.611963 -0.954937 -15.993991 -0.145955 -2.000757 -0.069240 1.990978 -54.702755 23.255478 -48.600266 5.358098 7.453083 -66.717628 -33.279461 45.242851 57.554176 1.990970 -0.069577 -2.000746 62.294090 12.844779 27.713503 -13.047892 6.992412 64.355286 153.572205 -54.646523 162.901550 10.507634 -11.823856 -9.753648 -6.079021 32.936295 2.399726 -12.641033 -29.679668 -1.806059 -22.371243 -21.630529 -14.663709 20.952150 46.321171 -7.072604 -1.273429 -19.436684 -16.636688 
-2.527071 46.588501 5.938602 -1.302804 8.327955 41.292023 -0.000000 -0.000002 -0.000000 -2.794670 -1.999572 -15.586348 3.694057 16.325253 -23.392601 -0.954937 -15.993991 -0.145955 -2.000757 -0.069240 1.990978 -53.999207 11.752252 -51.907471 4.831562 8.357724 -56.742535 -18.336369 37.467251 39.638386 1.990970 -0.069577 -2.000746 56.032932 14.032608 47.133900 -11.548601 9.372337 53.468369 160.607803 -61.875404 165.608154 12.485501 -10.738646 -14.193193 -5.075899 29.089628 1.878126 -15.325528 -28.323715 -3.360088 -22.554962 -19.184723 -19.494928 19.994678 45.072411 -6.406315 -3.466471 -23.082224 -18.072994 
-3.274569 46.443123 8.020206 -1.973009 8.139771 46.939297 -0.000000 -0.000002 -0.000000 -2.168795 -1.580899 -10.147750 4.769693 15.330100 -29.065674 -0.954937 -15.993991 -0.145955 -2.000757 -0.069240 1.990978 -53.202816 10.526675 -52.846317 4.819766 8.384849 -56.420174 -18.431684 32.060833 39.609463 1.990970 -0.069577 -2.000746 49.540398 14.293020 53.229500 -11.198531 9.819624 51.276600 168.844315 -59.117397 172.621902 14.628129 -9.781467 -18.631186 -3.787118 24.216116 1.228771 -17.934668 -26.245592 -4.223235 -22.497137 -16.779417 -24.281572 18.988676 43.628880 -5.678240 -5.796081 -26.438892 -19.710083 
-3.708150 46.328552 9.036587 -4.553283 7.739467 53.396889 -0.000000 -0.000002 -0.000000 -1.670205 -1.054241 -4.786599 5.806083 14.323724 -34.389324 -0.954937 -15.993991 -0.145955 -2.000757 -0.069240 1.990978 -52.536026 9.171176 -53.761196 4.782507 8.410451 -56.076321 -18.530230 26.657103 39.575878 1.990970 -0.069577 -2.000746 42.711212 14.250935 59.012791 -10.829005 10.240253 49.076488 175.776474 -55.935844 178.308640 16.874016 -13.113150 -23.410589 -3.568821 23.376926 1.145826 -19.539423 -25.550587 -5.076078 -21.828794 -15.625499 -29.245455 16.895525 40.429100 -4.255347 -6.708289 -27.833126 -21.799072 
-4.141730 46.210854 10.052943 -7.065496 7.055933 59.807819 -0.000000 -0.000002 -0.000000 -1.308626 -0.400286 0.430309 6.750427 13.163295 -39.532310 -0.954937 -15.993991 -0.145955 -2.000757 -0.069240 1.990978 -52.033752 7.629571 -54.654327 4.777733 8.444432 -55.745373 -18.642124 21.265005 39.525944 1.990970 -0.069577 -2.000746 35.612389 13.942264 64.499138 -10.436456 10.654140 46.872131 -178.368301 -52.425568 -177.116577 19.615389 -16.309280 -25.465738 -3.047131 21.235685 0.957301 -21.839262 -23.272543 -8.114666 -20.016125 -14.500985 -33.166367 15.696469 38.317669 -3.491043 -7.911274 -29.050385 -24.704388 
-4.367362 46.176121 10.342373 -8.417848 6.144542 62.575985 -0.000000 -0.000002 -0.000000 -1.044942 0.361268 5.484933 7.555085 11.871674 -44.462048 -0.954937 -15.993991 -0.145955 -2.000757 -0.069240 1.990978 -50.760723 7.486807 -53.126823 4.876775 8.296020 -57.446705 -18.122417 17.858957 39.760521 1.990970 -0.069577 -2.000746 32.008774 14.871676 67.497704 -10.128076 10.960755 45.190899 -176.486877 -50.403412 -175.078171 21.558092 -18.298059 -24.680662 -2.934149 20.639610 0.941801 -23.038956 -21.514538 -10.842362 -18.421410 -13.768596 -36.140068 15.275255 37.472454 -3.266709 -8.087317 -29.051006 -24.365385 
-4.592982 46.137272 10.631801 -9.727594 5.178779 65.320099 -0.000000 -0.000002 -0.000000 -0.908409 1.220550 10.351228 8.252530 10.430401 -49.139454 -0.954937 -15.993991 -0.145955 -2.000757 -0.069240 1.990978 -48.384117 8.723848 -49.340027 5.083955 7.958398 -61.197277 -17.002977 16.458315 40.292374 1.990970 -0.069577 -2.000746 32.165096 17.179247 68.357185 -9.913108 11.168175 44.035984 -177.869766 -50.052872 -174.870422 23.494314 -20.205080 -23.605778 -2.673955 19.686184 0.836806 -24.262121 -19.445328 -13.540474 -16.673920 -13.107761 -39.100182 14.846232 36.514412 -3.036479 -8.301179 -29.032948 -24.016006 
